<svg width="18" height="18" viewBox="0 0 18 18" fill="none" xmlns="http://www.w3.org/2000/svg">
<mask id="path-1-inside-1_4321_390" fill="white">
<path fill-rule="evenodd" clip-rule="evenodd" d="M3.6 0C1.61177 0 0 1.61178 0 3.6V14.4C0 16.3882 1.61178 18 3.6 18H14.4C16.3882 18 18 16.3882 18 14.4V3.6C18 1.61177 16.3882 0 14.4 0H3.6ZM7.94271 13.0119L7.95938 12.9953L7.9761 13.012L13.8305 7.15758L12.4753 5.80237L7.95944 10.3182L5.13599 7.4948L3.78078 8.85001L7.94271 13.0119Z"/>
</mask>
<path fill-rule="evenodd" clip-rule="evenodd" d="M3.6 0C1.61177 0 0 1.61178 0 3.6V14.4C0 16.3882 1.61178 18 3.6 18H14.4C16.3882 18 18 16.3882 18 14.4V3.6C18 1.61177 16.3882 0 14.4 0H3.6ZM7.94271 13.0119L7.95938 12.9953L7.9761 13.012L13.8305 7.15758L12.4753 5.80237L7.95944 10.3182L5.13599 7.4948L3.78078 8.85001L7.94271 13.0119Z" fill="white"/>
<path d="M7.95938 12.9953L9.23215 11.7225L7.9594 10.4497L6.68663 11.7224L7.95938 12.9953ZM7.94271 13.0119L6.66992 14.2847L7.94268 15.5575L9.21547 14.2848L7.94271 13.0119ZM7.9761 13.012L6.70333 14.2848L7.97612 15.5576L9.2489 14.2848L7.9761 13.012ZM13.8305 7.15758L15.1033 8.43037L16.3761 7.15758L15.1033 5.88479L13.8305 7.15758ZM12.4753 5.80237L13.7481 4.52958L12.4753 3.25679L11.2025 4.52958L12.4753 5.80237ZM7.95944 10.3182L6.68664 11.591L7.95944 12.8638L9.23223 11.591L7.95944 10.3182ZM5.13599 7.4948L6.40878 6.22201L5.13599 4.94921L3.8632 6.22201L5.13599 7.4948ZM3.78078 8.85001L2.50799 7.57721L1.2352 8.85001L2.50799 10.1228L3.78078 8.85001ZM1.8 3.6C1.8 2.60589 2.60589 1.8 3.6 1.8V-1.8C0.617662 -1.8 -1.8 0.617664 -1.8 3.6H1.8ZM1.8 14.4V3.6H-1.8V14.4H1.8ZM3.6 16.2C2.60589 16.2 1.8 15.3941 1.8 14.4H-1.8C-1.8 17.3823 0.617664 19.8 3.6 19.8V16.2ZM14.4 16.2H3.6V19.8H14.4V16.2ZM16.2 14.4C16.2 15.3941 15.3941 16.2 14.4 16.2V19.8C17.3823 19.8 19.8 17.3823 19.8 14.4H16.2ZM16.2 3.6V14.4H19.8V3.6H16.2ZM14.4 1.8C15.3941 1.8 16.2 2.60589 16.2 3.6H19.8C19.8 0.617662 17.3823 -1.8 14.4 -1.8V1.8ZM3.6 1.8H14.4V-1.8H3.6V1.8ZM6.68663 11.7224L6.66996 11.7391L9.21547 14.2848L9.23214 14.2681L6.68663 11.7224ZM9.24888 11.7392L9.23215 11.7225L6.68661 14.2681L6.70333 14.2848L9.24888 11.7392ZM12.5577 5.88479L6.70331 11.7392L9.2489 14.2848L15.1033 8.43037L12.5577 5.88479ZM11.2025 7.07517L12.5577 8.43037L15.1033 5.88479L13.7481 4.52958L11.2025 7.07517ZM9.23223 11.591L13.7481 7.07517L11.2025 4.52958L6.68664 9.04545L9.23223 11.591ZM3.8632 8.76759L6.68664 11.591L9.23223 9.04545L6.40878 6.22201L3.8632 8.76759ZM5.05357 10.1228L6.40878 8.76759L3.8632 6.22201L2.50799 7.57721L5.05357 10.1228ZM9.21551 11.7391L5.05357 7.57721L2.50799 10.1228L6.66992 14.2847L9.21551 11.7391Z" fill="white" mask="url(#path-1-inside-1_4321_390)"/>
</svg>
