<svg width="26" height="26" viewBox="0 0 26 26" fill="none" xmlns="http://www.w3.org/2000/svg">
<path d="M14.3965 0.447844L24.4311 7.62644C24.9165 7.97367 25.3119 8.43109 25.5848 8.96088C25.8576 9.49066 25.9999 10.0776 26 10.6731V22.2493C26 24.3207 24.3151 26 22.2368 26H17.1053V20.5444C17.1053 18.2847 15.2671 16.4526 13 16.4526C10.7329 16.4526 8.89474 18.2847 8.89474 20.5444V26H3.76316C1.68487 26 0 24.3207 0 22.2493V10.6734C2.58585e-05 10.0779 0.142337 9.49088 0.415157 8.96103C0.687978 8.43118 1.08346 7.9737 1.56889 7.62644L11.6035 0.447844C12.0106 0.156633 12.499 0 13 0C13.501 0 13.9894 0.156633 14.3965 0.447844Z" fill="currentColor"/>
</svg>
