<svg width="25" height="25" viewBox="0 0 25 25" fill="none" xmlns="http://www.w3.org/2000/svg">
<path fill-rule="evenodd" clip-rule="evenodd" d="M2 0C0.895431 0 0 0.89543 0 2V23C0 24.1046 0.89543 25 2 25H23C24.1046 25 25 24.1046 25 23V2C25 0.895431 24.1046 0 23 0H2ZM16.9355 8.46774C16.9355 10.9174 14.9496 12.9032 12.5 12.9032C10.0503 12.9032 8.06452 10.9174 8.06452 8.46774C8.06452 6.01809 10.0503 4.03226 12.5 4.03226C14.9496 4.03226 16.9355 6.01809 16.9355 8.46774ZM4.03226 19.3548C4.03226 17.1279 5.83756 15.3226 8.06452 15.3226H16.9355C19.1624 15.3226 20.9677 17.1279 20.9677 19.3548V20.9677H4.03226V19.3548Z" fill="currentColor"/>
</svg>
